<svg width="313" height="72" viewBox="0 0 313 72" fill="none" xmlns="http://www.w3.org/2000/svg">
<path d="M0.731255 47L8.53926 29.144H4.57126V24.6H26.8113L36.5393 47H27.8993L25.4673 41.4H11.8353L9.40326 47H0.731255ZM13.8193 36.856H23.4833L20.0913 29.144H17.2113L13.8193 36.856ZM33.2713 29.144V24.6H71.2873V32.856L62.9353 31.704V29.144H46.3913V42.456H62.9353V39.896L71.2873 38.744V47H38.0393V29.144H33.2713ZM85.3663 29.144V24.6H98.4863V47H90.1343V29.144H85.3663ZM104.239 47V23.704L129.135 37.624V29.144H126.415V24.6H137.487V47H130.415L112.591 36.76V42.456H115.311V47H104.239ZM142.935 47V39.64L151.287 40.856V42.456H167.479V39.64L142.935 35.768V24.6H175.831V32.376L167.479 31.096V29.144H151.287V32.184L175.831 36.056V47H142.935ZM178.071 29.144V24.6H191.191V47H182.839V29.144H178.071ZM193.744 29.144V24.6H231.76V32.536L223.408 31.384V29.144H206.864V42.456H223.408V39.416H216.656V34.872H231.76V47H198.512V29.144H193.744ZM234.323 29.144V24.6H247.443V33.464H263.955V24.6H272.307V47H263.955V38.008H247.443V47H239.091V29.144H234.323ZM275.83 33.56V24.6H311.638V33.56L303.286 32.408V29.144H297.91V47H289.558V29.144H284.182V32.408L275.83 33.56Z" fill="#363438"/>
</svg>
