<svg width="40" height="40" viewBox="0 0 40 40" fill="none" xmlns="http://www.w3.org/2000/svg">
<mask id="mask0_1260_1068" style="mask-type:alpha" maskUnits="userSpaceOnUse" x="0" y="0" width="40" height="40">
<rect width="40" height="40" fill="#D9D9D9"/>
</mask>
<g mask="url(#mask0_1260_1068)">
<path d="M37.3333 40L22.9259 25.5926C21.8148 26.5309 20.5252 27.2654 19.0571 27.7963C17.5889 28.3272 16.0267 28.5926 14.3704 28.5926C10.3541 28.5926 6.95491 27.2006 4.17295 24.4167C1.39098 21.6327 0 18.2593 0 14.2963C0 10.3334 1.39198 6.95991 4.17595 4.17594C6.95987 1.39198 10.3395 0 14.3148 0C18.2901 0 21.6636 1.39198 24.4352 4.17594C27.2068 6.95991 28.5926 10.3352 28.5926 14.3019C28.5926 15.9031 28.3334 17.4383 27.8148 18.9074C27.2963 20.3766 26.5432 21.7284 25.5556 22.963L40 37.3334L37.3333 40ZM14.3333 24.8889C17.2654 24.8889 19.7577 23.855 21.8102 21.7871C23.8627 19.7192 24.8889 17.2223 24.8889 14.2963C24.8889 11.3704 23.8627 8.87345 21.8102 6.80556C19.7577 4.73767 17.2654 3.70372 14.3333 3.70372C11.3807 3.70372 8.87089 4.73767 6.804 6.80556C4.73711 8.87345 3.70367 11.3704 3.70367 14.2963C3.70367 17.2223 4.73711 19.7192 6.804 21.7871C8.87089 23.855 11.3807 24.8889 14.3333 24.8889Z" fill="white"/>
</g>
</svg>
