<svg width="313" height="48" viewBox="0 0 313 48" fill="none" xmlns="http://www.w3.org/2000/svg">
<path d="M0.731255 35L8.53926 17.144H4.57126V12.6H26.8113L36.5393 35H27.8993L25.4673 29.4H11.8353L9.40326 35H0.731255ZM13.8193 24.856H23.4833L20.0913 17.144H17.2113L13.8193 24.856ZM33.2713 17.144V12.6H71.2873V20.856L62.9353 19.704V17.144H46.3913V30.456H62.9353V27.896L71.2873 26.744V35H38.0393V17.144H33.2713ZM85.3663 17.144V12.6H98.4863V35H90.1343V17.144H85.3663ZM104.239 35V11.704L129.135 25.624V17.144H126.415V12.6H137.487V35H130.415L112.591 24.76V30.456H115.311V35H104.239ZM142.935 35V27.64L151.287 28.856V30.456H167.479V27.64L142.935 23.768V12.6H175.831V20.376L167.479 19.096V17.144H151.287V20.184L175.831 24.056V35H142.935ZM178.071 17.144V12.6H191.191V35H182.839V17.144H178.071ZM193.744 17.144V12.6H231.76V20.536L223.408 19.384V17.144H206.864V30.456H223.408V27.416H216.656V22.872H231.76V35H198.512V17.144H193.744ZM234.323 17.144V12.6H247.443V21.464H263.955V12.6H272.307V35H263.955V26.008H247.443V35H239.091V17.144H234.323ZM275.83 21.56V12.6H311.638V21.56L303.286 20.408V17.144H297.91V35H289.558V17.144H284.182V20.408L275.83 21.56Z" fill="#39342F"/>
</svg>
